<?xml version="1.0" standalone="no"?>
<!DOCTYPE svg PUBLIC "-//W3C//DTD SVG 20010904//EN"
 "http://www.w3.org/TR/2001/REC-SVG-20010904/DTD/svg10.dtd">
<svg version="1.0" xmlns="http://www.w3.org/2000/svg"
 width="400.000000pt" height="400.000000pt" viewBox="0 0 400.000000 400.000000"
 preserveAspectRatio="xMidYMid meet">
<metadata>
Created by potrace 1.11, written by Peter Selinger 2001-2013
</metadata>
<g transform="translate(0.000000,400.000000) scale(0.100000,-0.100000)"
fill="#000000" stroke="none">
<path d="M1839 3650 c-648 -58 -1214 -512 -1418 -1137 -61 -187 -76 -287 -76
-513 0 -222 14 -324 72 -505 177 -557 651 -989 1222 -1116 363 -80 763 -30
1093 136 460 232 780 646 888 1150 31 143 38 420 16 571 -112 763 -730 1346
-1498 1414 -125 11 -172 11 -299 0z m406 -235 c109 -19 297 -81 392 -128 134
-68 255 -157 373 -276 209 -209 334 -440 397 -733 26 -118 25 -438 0 -558 -59
-277 -183 -512 -376 -712 -168 -175 -364 -301 -584 -373 -168 -54 -260 -69
-447 -69 -306 0 -550 73 -804 241 -126 83 -308 263 -387 383 -119 179 -204
394 -235 595 -20 132 -15 377 11 495 63 290 193 528 400 735 241 242 534 380
890 419 71 7 278 -3 370 -19z"/>
<path d="M1790 3092 c-46 -64 -239 -326 -429 -582 -423 -571 -391 -524 -391
-572 0 -49 -11 -29 188 -352 105 -171 171 -288 179 -320 8 -28 17 -108 20
-178 l6 -128 86 -44 c138 -70 335 -126 447 -126 l34 0 0 306 c0 214 -4 319
-12 348 -13 44 -53 88 -200 219 -159 142 -234 286 -232 452 1 115 13 146 144
351 125 194 199 320 256 438 38 78 44 98 44 155 0 61 -29 152 -48 151 -4 -1
-45 -54 -92 -118z"/>
<path d="M2081 3161 c-54 -128 -13 -233 262 -666 147 -231 172 -292 164 -410
-11 -178 -96 -309 -330 -510 -115 -98 -111 -86 -115 -464 l-3 -324 73 6 c113
10 262 53 384 111 l111 53 6 125 c11 190 16 204 195 495 88 142 166 273 176
290 19 37 21 95 5 126 -7 11 -116 161 -242 331 -127 171 -325 439 -440 596
-115 157 -213 286 -217 288 -4 1 -17 -20 -29 -47z"/>
<path d="M1891 2504 c-305 -82 -409 -461 -186 -679 239 -234 638 -105 696 224
50 283 -228 531 -510 455z"/>
</g>
</svg>
